<svg width="24" height="36" viewBox="0 0 24 36" fill="none" xmlns="http://www.w3.org/2000/svg">
<path d="M23.1529 12.2122C23.1529 16.8823 20.3859 20.9087 16.4028 22.7355C18.0847 21.3501 19.1558 19.2484 19.1558 16.8964C19.1558 12.7647 15.8494 9.40468 11.7355 9.32092C11.6809 9.31715 11.6311 9.31715 11.5765 9.31715C11.5219 9.31715 11.472 9.31715 11.4174 9.32092C9.89082 9.40374 8.68235 10.6668 8.68235 12.2113V26.6819C8.68235 31.4753 4.79341 35.3642 0 35.3642V12.2122C0 5.81974 5.184 0.635742 11.5765 0.635742C17.9689 0.635742 23.1529 5.81974 23.1529 12.2122Z" fill="#B65245"/>
<path d="M13.6227 14.2586C14.7529 13.1284 14.7529 11.2959 13.6227 10.1657C12.4925 9.03552 10.66 9.03552 9.52983 10.1657C8.39962 11.2959 8.39962 13.1284 9.52983 14.2586C10.66 15.3888 12.4925 15.3888 13.6227 14.2586Z" fill="#B65245"/>
</svg>
