<svg width="608" height="583" viewBox="0 0 608 583" fill="none" xmlns="http://www.w3.org/2000/svg">
<path d="M288.471 59.6223C327.956 35.8461 417.986 158.482 346.777 229.37C330.942 245.132 326.243 235.493 305.527 238.807C293.858 240.672 289.107 216.77 236.629 231.738C202.128 241.579 207.178 195.627 158.243 206.349C51.4046 229.748 195.262 53.1081 288.484 59.6223H288.471Z" fill="black"/>
<path fill-rule="evenodd" clip-rule="evenodd" d="M297.129 59.3199C291.534 68.7321 276.789 70.8111 263.342 66.7539C248.934 62.4069 241.458 47.1987 247.364 33.7293C250.946 25.5519 257.566 18.5085 267.457 14.7537C277.347 10.9989 288.367 15.0183 293.352 24.0273C299.673 35.4555 301.931 51.2685 297.142 59.3325L297.129 59.3199Z" fill="black"/>
<path d="M312.237 160.258C313.405 154.576 315.871 150.09 319 147.154C323.569 142.87 329.617 141.736 335.186 144.697C338.457 146.436 341.481 149.662 343.908 154.551C341.78 156.768 339.404 157.638 336.847 157.751C331.24 147.684 322.634 150.708 320.051 160.838C317.247 161.544 314.651 161.14 312.237 160.246V160.258Z" fill="#FFF8F5"/>
<path d="M313.69 155.307C315.014 151.93 316.845 149.183 318.999 147.154C323.568 142.87 329.617 141.736 335.185 144.697C337.132 145.731 338.988 147.293 340.676 149.41C338.106 150.67 335.341 151.779 332.421 152.698C329.033 150.556 325.424 151.552 322.841 154.84C319.687 155.269 316.598 155.42 313.677 155.294L313.69 155.307Z" fill="white" stroke="black" stroke-width="2.52" stroke-miterlimit="10"/>
<path fill-rule="evenodd" clip-rule="evenodd" d="M297.725 149.926C293.273 144.244 272.09 137.982 268.417 140.779C267.417 160.334 263.419 186.114 259.24 196.118C270.545 199.621 292.975 198.361 302.775 195.879C297.557 186.403 296.713 157.171 297.725 149.914V149.926Z" fill="white" stroke="#020202" stroke-width="2.52" stroke-miterlimit="10"/>
<path fill-rule="evenodd" clip-rule="evenodd" d="M319.337 113.046C324.918 111.547 330.785 115.075 332.447 120.909C334.108 126.755 330.941 132.702 325.36 134.189C319.778 135.688 313.911 132.16 312.25 126.327C310.589 120.493 313.756 114.533 319.337 113.046Z" fill="white" stroke="#020202" stroke-width="2.52" stroke-miterlimit="10"/>
<path fill-rule="evenodd" clip-rule="evenodd" d="M268.404 140.779C246.714 151.842 239.147 110.488 266.586 121.463C273.466 111.118 286.044 109.165 287.212 90.4293C291.923 90.1143 296.531 90.1899 301.022 90.7695C311.367 92.0925 320.077 98.8335 323.919 108.258C334.07 133.156 322.426 158.658 305.903 164.051C294.351 167.831 281.591 158.255 268.391 140.791L268.404 140.779Z" fill="white" stroke="#020202" stroke-width="2.52" stroke-miterlimit="10"/>
<path d="M255.073 129.3C254.385 129.691 253.516 129.477 253.1 128.809C252.698 128.141 252.919 127.297 253.607 126.894C253.866 126.742 254.139 126.604 254.411 126.478C256.332 125.571 258.435 125.268 260.447 125.81C262.446 126.339 264.302 127.687 265.743 130.044C265.925 130.333 266.093 130.648 266.262 130.976C266.496 131.392 266.522 131.908 266.262 132.349C265.873 133.017 264.99 133.244 264.302 132.866C263.445 132.387 262.641 132.072 261.888 131.883C261.135 131.694 260.421 131.656 259.785 131.719C258.993 131.808 258.292 131.253 258.202 130.485C258.111 129.716 258.682 129.036 259.474 128.947C259.902 128.897 260.33 128.884 260.785 128.91C260.434 128.721 260.071 128.569 259.694 128.469C258.396 128.116 256.994 128.343 255.67 128.96C255.476 129.048 255.281 129.149 255.073 129.275V129.3Z" fill="black"/>
<path d="M267.197 141.522C266.768 140.867 266.976 140.01 267.651 139.607C268.326 139.191 269.209 139.393 269.624 140.048C271.856 143.488 274.556 147.029 277.814 150.405C281.072 153.77 284.875 156.97 289.341 159.717C290.003 160.133 290.21 160.989 289.782 161.632C289.354 162.275 288.471 162.476 287.809 162.06C283.123 159.162 279.138 155.823 275.738 152.308C272.337 148.793 269.533 145.113 267.21 141.535L267.197 141.522Z" fill="black"/>
<path d="M233.527 159.817C237.46 154.462 242.172 150.922 246.805 149.309C253.594 146.928 260.395 148.49 264.744 154.084C267.301 157.36 268.884 162.073 269.053 168.234C265.782 169.557 262.901 169.393 260.201 168.36C259.227 155.407 248.856 154.651 241.328 163.975C238.083 163.434 235.591 161.859 233.514 159.83L233.527 159.817Z" fill="#FFF8F5"/>
<path d="M237.408 155.344C240.393 152.446 243.625 150.418 246.818 149.309C253.607 146.928 260.409 148.49 264.757 154.084C266.275 156.037 267.444 158.482 268.184 161.443C264.926 161.594 261.525 161.493 258.059 161.115C255.58 157.36 251.361 156.756 247.117 159.011C243.638 158.028 240.38 156.793 237.408 155.344Z" fill="white" stroke="black" stroke-width="2.52" stroke-miterlimit="10"/>
<path fill-rule="evenodd" clip-rule="evenodd" d="M290.003 484.771L260.694 484.141L258.643 563.849C284.499 573.727 438.17 577.192 452.188 549.775C342.533 524.058 353.942 438.139 290.003 484.771Z" fill="white" stroke="black" stroke-width="2.52" stroke-miterlimit="10"/>
<path fill-rule="evenodd" clip-rule="evenodd" d="M410.808 566.507C432.069 563.156 448.099 557.788 452.188 549.775C434.937 545.73 420.672 540.186 408.653 533.911C407.355 538.145 406.654 542.681 406.654 547.393C406.654 554.26 408.147 560.749 410.808 566.507Z" fill="white" stroke="#231F20" stroke-width="2.52" stroke-miterlimit="10"/>
<path fill-rule="evenodd" clip-rule="evenodd" d="M314.068 562.513L312.017 482.806C320.649 478.093 426.812 442.826 429.668 436.223C421.529 419.982 419.349 398.524 364.975 384.929C636.595 290.656 623.667 545.743 314.068 562.501V562.513Z" fill="black"/>
<path fill-rule="evenodd" clip-rule="evenodd" d="M312.264 492.432L312.017 482.818C320.649 478.106 426.812 442.838 429.668 436.236C421.53 419.995 419.349 398.537 364.976 384.941C461.573 351.413 522.151 362.098 546.228 390.498C513.986 443.846 423.399 484.229 312.264 492.419V492.432Z" fill="#1C1B1B"/>
<path fill-rule="evenodd" clip-rule="evenodd" d="M264.575 558.33C281.735 538.384 384.342 487.619 377.982 456.686C368.558 410.784 238.784 387.008 202.388 398.083C-1.47585 327.347 -68.6863 497.548 120.51 548.426C158.684 558.695 204.231 560.346 264.562 558.33H264.575Z" fill="black"/>
<path fill-rule="evenodd" clip-rule="evenodd" d="M361.705 486.472C372.894 475.725 379.786 465.418 377.995 456.686C368.571 410.784 238.797 387.008 202.401 398.083C107.92 365.298 42.8123 384.286 18.9551 419.138C68.3699 463.78 162.488 493.957 270.494 493.957C302.373 493.957 333.032 491.323 361.705 486.472Z" fill="#1C1B1B"/>
<path fill-rule="evenodd" clip-rule="evenodd" d="M282.709 483.436L312.017 482.806L314.068 562.513C288.212 572.392 134.542 575.857 120.523 548.439C230.178 522.723 218.769 436.803 282.709 483.436Z" fill="white" stroke="black" stroke-width="2.52" stroke-miterlimit="10"/>
<path fill-rule="evenodd" clip-rule="evenodd" d="M161.904 565.172C140.642 561.82 124.612 556.453 120.523 548.439C137.774 544.395 152.039 538.85 164.058 532.576C165.356 536.809 166.057 541.345 166.057 546.058C166.057 552.925 164.565 559.414 161.904 565.172Z" fill="white" stroke="#231F20" stroke-width="2.52" stroke-miterlimit="10"/>
<path fill-rule="evenodd" clip-rule="evenodd" d="M211.968 495.658C234.825 472.65 247.052 457.429 282.709 483.436C274.44 495.255 258.696 503.243 240.627 503.243C229.893 503.243 219.989 500.421 211.968 495.658Z" fill="white" stroke="#231F20" stroke-width="2.52" stroke-miterlimit="10"/>
<path d="M315.159 481.584C314.419 481.873 313.588 481.533 313.29 480.815C312.991 480.097 313.341 479.29 314.081 479.001L446.023 426.761C446.763 426.471 447.594 426.811 447.892 427.53C448.191 428.248 447.84 429.054 447.1 429.344L315.159 481.584Z" fill="white"/>
<path d="M120.406 435.631C119.666 435.354 119.303 434.548 119.589 433.829C119.874 433.111 120.705 432.758 121.445 433.036L230.334 474.036C231.074 474.313 231.437 475.12 231.152 475.838C230.866 476.556 230.035 476.909 229.296 476.632L120.406 435.631Z" fill="white"/>
<path fill-rule="evenodd" clip-rule="evenodd" d="M328.93 219.655C335.926 210.041 332.097 195.047 329.385 189.138C296.545 187.613 265.614 186.202 239.407 182.712C234.15 189.465 230.983 210.835 236.928 222.465C175.546 232.293 -14.2739 394.53 169.198 435.052C493.776 532.034 577.328 321.778 328.917 219.642L328.93 219.655Z" fill="white" stroke="black" stroke-width="2.52" stroke-miterlimit="10"/>
<path d="M243.456 224.456C242.742 224.128 242.431 223.296 242.768 222.603C243.106 221.91 243.963 221.608 244.676 221.936C249.583 224.166 260.291 226.094 271.298 227.215C282.5 228.349 293.936 228.639 299.816 227.53C300.594 227.391 301.347 227.883 301.49 228.639C301.633 229.395 301.126 230.126 300.348 230.264C294.195 231.423 282.435 231.146 270.987 229.987C259.707 228.84 248.648 226.824 243.443 224.456H243.456Z" fill="black"/>
<path d="M201.453 274.074C201.57 273.318 202.31 272.789 203.089 272.903C203.868 273.016 204.413 273.734 204.296 274.49L188.045 385.987C187.928 386.743 187.188 387.273 186.41 387.159C185.787 387.071 185.319 386.592 185.215 386.025C184.891 384.879 183.372 381.552 182.918 380.431C178.557 369.658 168.913 361.657 157.594 357.071C146.211 352.472 133.179 351.325 122.081 354.286C120.679 354.664 119.29 355.105 117.914 355.634C117.174 355.911 116.344 355.558 116.058 354.84C115.772 354.122 116.136 353.316 116.876 353.039C118.304 352.497 119.796 352.018 121.341 351.602C133.049 348.477 146.769 349.674 158.71 354.5C170.185 359.137 180.049 367.151 184.969 377.936L201.479 274.074H201.453Z" fill="black"/>
<path d="M355.24 283.323C355.084 282.567 355.578 281.836 356.356 281.672C357.135 281.521 357.888 282 358.057 282.756L376.32 368.196C376.475 368.952 375.982 369.683 375.203 369.847C374.425 370.011 373.672 369.519 373.503 368.763L355.24 283.323Z" fill="black"/>
<path fill-rule="evenodd" clip-rule="evenodd" d="M169.211 435.064L187.072 387.184L235.461 398.159L293.352 432.595C290.159 437.962 287.914 442.498 279.762 442.902C283.968 446.82 291.418 448.433 294.248 451.092C290.328 460.214 273.882 457.618 271.559 456.472C256.8 471.743 230.724 453.75 220.794 450.436C214.784 451.016 180.413 447.589 169.224 435.077L169.211 435.064Z" fill="white" stroke="black" stroke-width="2.52" stroke-miterlimit="10"/>
<path d="M230.438 432.608C229.776 432.192 229.568 431.335 229.997 430.692C230.425 430.05 231.308 429.848 231.97 430.264L272.312 455.3C272.974 455.716 273.181 456.573 272.753 457.215C272.325 457.858 271.442 458.06 270.78 457.644L230.438 432.608Z" fill="black"/>
<path d="M236.513 417.513C235.877 417.046 235.747 416.177 236.214 415.56C236.694 414.942 237.59 414.816 238.226 415.27C242.925 418.684 254.412 425.917 265.873 432.91C279.087 440.974 292.223 448.685 294.819 449.819C295.546 450.134 295.87 450.953 295.546 451.659C295.221 452.364 294.377 452.679 293.651 452.364C290.925 451.18 277.646 443.38 264.342 435.279C252.802 428.235 241.237 420.952 236.513 417.525V417.513Z" fill="black"/>
<path d="M244.067 404.913C243.392 404.509 243.172 403.653 243.587 402.997C244.002 402.342 244.885 402.128 245.56 402.531L294.105 431.398C294.78 431.801 295.001 432.658 294.585 433.313C294.17 433.968 293.287 434.182 292.612 433.779L244.067 404.913Z" fill="black"/>
<path fill-rule="evenodd" clip-rule="evenodd" d="M373.841 221.86C379.332 224.833 381.772 230.73 379.293 235.027C376.826 239.323 370.362 240.394 364.885 237.421C359.394 234.447 356.954 228.55 359.433 224.254C361.912 219.957 368.363 218.886 373.841 221.86Z" fill="white" stroke="black" stroke-width="2.52" stroke-miterlimit="10"/>
<path fill-rule="evenodd" clip-rule="evenodd" d="M402.929 231.474C394.323 227.416 370.959 225.526 357.992 227.706C350.788 228.916 354.397 242.587 358.538 243.759C355.448 248.32 355.318 256.144 359.511 262.003C357.162 266.287 358.265 275.007 362.483 278.774C366.884 293.592 374.477 294.171 382.966 294.776L382.525 430.566C465.025 428.739 446.892 335.915 419.985 271.97L402.942 231.461L402.929 231.474Z" fill="white" stroke="black" stroke-width="2.52" stroke-miterlimit="10"/>
<path d="M358.667 245.145C357.876 245.208 357.188 244.641 357.123 243.872C357.058 243.103 357.642 242.436 358.434 242.373C362.886 242.007 368.506 242.221 373.945 242.7C380.954 243.33 387.691 244.401 391.312 245.296C392.078 245.485 392.545 246.241 392.364 246.984C392.182 247.728 391.39 248.181 390.624 247.992C387.081 247.123 380.526 246.064 373.685 245.46C368.415 244.993 362.977 244.792 358.667 245.145Z" fill="black"/>
<path d="M359.628 263.352C358.836 263.415 358.148 262.848 358.084 262.079C358.019 261.31 358.603 260.643 359.395 260.58C363.769 260.214 368.961 260.428 373.984 260.92C380.682 261.562 387.055 262.709 390.741 263.616C391.507 263.805 391.974 264.561 391.793 265.305C391.598 266.048 390.819 266.502 390.053 266.325C386.458 265.443 380.227 264.334 373.711 263.704C368.87 263.238 363.847 263.024 359.641 263.377L359.628 263.352Z" fill="black"/>
<path d="M362.471 280.16C361.679 280.16 361.043 279.53 361.043 278.761C361.043 277.993 361.692 277.375 362.484 277.375C367.312 277.4 372.439 277.753 377.177 278.27C382.421 278.849 387.223 279.656 390.611 280.487C391.377 280.676 391.844 281.432 391.663 282.176C391.468 282.919 390.689 283.373 389.923 283.196C386.639 282.39 381.979 281.609 376.878 281.054C372.193 280.538 367.156 280.198 362.484 280.172L362.471 280.16Z" fill="black"/>
<path fill-rule="evenodd" clip-rule="evenodd" d="M343.182 312.227H549.253L476.902 461.335H270.845L343.182 312.227Z" fill="white"/>
<path d="M343.429 310.828H551.758L478.057 462.734H268.82C293.378 412.095 317.949 361.455 342.52 310.828H343.429ZM547.228 313.626H344.337L273.35 459.949H476.24L547.228 313.626Z" fill="black"/>
<path d="M212.149 462.734C211.357 462.734 210.708 462.104 210.708 461.335C210.708 460.567 211.357 459.937 212.149 459.937H476.915C477.706 459.937 478.355 460.567 478.355 461.335C478.355 462.104 477.706 462.734 476.915 462.734H212.149Z" fill="#1A1A1A"/>
<path d="M410.288 398.651C417.041 398.651 422.515 393.336 422.515 386.781C422.515 380.226 417.041 374.912 410.288 374.912C403.535 374.912 398.061 380.226 398.061 386.781C398.061 393.336 403.535 398.651 410.288 398.651Z" fill="black"/>
</svg>
