<svg width="566" height="1355" viewBox="0 0 566 1355" fill="none" xmlns="http://www.w3.org/2000/svg">
<g clip-path="url(#clip0_508_892)">
<path d="M200.698 555.929C204.306 556.132 221.194 557.147 245.887 558.664C255.253 545.3 266.687 521.447 264.123 486.928C263.657 481.212 277.392 514.487 268.836 560.067C316.55 562.96 381.465 566.877 438.19 569.823C440.299 550.575 443.258 532.826 443.258 532.826C444.475 546.808 447.232 559.485 450.526 570.511C458.281 570.97 465.894 571.288 473.182 571.649C473.091 541.639 481.697 489.698 481.697 489.698C484.93 526.193 496.729 555.709 505.437 573.167C541.473 574.71 565.213 575.151 563.763 573.608C512.097 517.036 553.667 487.29 540.682 438.764C525.092 380.613 468.691 369.224 472.645 326.176C475.757 291.146 484.119 227.685 433.912 212.053C433.912 212.053 394.562 170.919 328.359 190.07C246.465 213.694 272.638 323.159 265.988 344.948C256.531 376.079 238.751 386.47 224.022 421.809C209.01 457.571 226.739 482.412 227.6 507.103C228.361 531.794 191.656 555.497 200.698 555.929Z" fill="black"/>
<path d="M565.79 565.915C559.029 555.912 553.089 545.414 549.906 534.502C546.348 523.643 548.71 512.757 551.791 501.563C554.853 490.421 558.411 479.042 560.245 467.159C561.918 455.321 562.08 442.803 558.167 430.877C554.498 418.933 547.26 407.932 538.097 398.89C529.045 389.707 518.502 382.192 508.345 374.782C498.29 367.292 488.255 359.882 480.916 350.567C473.394 341.384 469.116 330.26 468.113 318.633C466.967 330.225 469.887 342.389 476.78 352.816C483.571 363.314 493.353 371.923 503.054 379.916C512.755 387.961 522.537 395.644 530.606 404.324C538.614 412.996 544.878 422.682 547.95 433.259C551.061 443.8 551.518 454.942 550.007 466.101C548.679 477.295 545.679 488.49 543.327 500.063C542.212 505.859 541.178 511.769 541.087 517.882C540.955 524.004 542.405 530.277 544.706 535.887C549.612 547.125 556.991 557.12 565.79 565.915Z" fill="black"/>
<path d="M280.737 228.513C273.773 241.56 270.691 255.886 267.59 269.939C264.792 284.088 262.795 298.326 260.98 312.511L258.112 333.682C257.139 340.757 255.76 347.382 253.368 353.839C248.685 366.815 239.632 377.939 229.476 389.213C224.539 394.938 219.531 400.91 215.345 407.429C211.148 413.93 207.702 420.864 205.279 428.027C203.09 435.287 201.508 442.424 200.596 449.772C199.643 457.102 199.704 464.645 200.819 471.993C201.904 479.368 203.911 486.372 205.533 493.235C207.185 500.08 208.107 507.067 208.219 513.965C208.705 527.665 199.694 540.959 186.526 549.392C200.991 542.679 212.04 529.279 213.318 514.15C213.936 506.793 213.449 499.48 212.355 492.256C211.3 485.04 209.597 478.106 209.06 471.252C207.803 457.667 210.52 443.659 214.95 430.559C217.413 424.093 220.464 417.847 224.397 411.946C228.279 406.018 233.033 400.469 238 394.823C242.886 389.142 247.985 383.302 252.395 376.916C256.794 370.538 260.565 363.666 263.018 356.45C265.43 349.243 266.687 341.727 267.407 334.599C268.248 327.419 268.765 320.273 269.282 313.146C270.377 298.899 271.239 284.679 272.769 270.53C274.128 256.362 276.084 242.23 280.737 228.513Z" fill="black"/>
<path d="M277.682 561.695C157.18 700.935 11.2602 988.074 43.9504 1042.95C80.3732 1104.08 254.227 905.803 248.243 896.825C243.162 889.195 299.68 717.432 340.727 591.83C381.725 466.34 307.482 527.255 277.682 561.695Z" fill="#D3766A"/>
<path d="M277.682 561.695C157.18 700.935 11.2602 988.074 43.9504 1042.95C80.3732 1104.08 254.227 905.803 248.243 896.825C243.162 889.195 299.68 717.432 340.727 591.83C381.725 466.34 307.482 527.255 277.682 561.695Z" fill="black" stroke="white" stroke-width="2" stroke-miterlimit="10"/>
<path d="M293.9 735.918C282.149 772.558 271.36 806.923 263.173 834.388C244.546 835.241 190.074 832.15 133.472 776.293C150.485 745.304 168.907 714.179 187.895 684.451C202.127 699.846 236.659 729.859 293.9 735.918Z" fill="black" stroke="white" stroke-width="1.25833" stroke-miterlimit="10"/>
<path d="M608.774 1105.44H162.571L192.677 895.979L192.725 895.644L192.561 895.349L192.402 895.438C192.561 895.349 192.56 895.349 192.56 895.349L192.559 895.346L192.553 895.335L192.528 895.29C192.505 895.249 192.471 895.187 192.427 895.105C192.337 894.942 192.204 894.696 192.031 894.373C191.686 893.726 191.182 892.767 190.549 891.523C189.284 889.036 187.506 885.408 185.459 880.859C181.364 871.76 176.198 858.98 171.909 844.261C163.318 814.776 158.307 777.714 172.226 746.829L172.227 746.828C179.29 731.108 207.15 684.637 239.839 637.165C256.175 613.441 273.699 589.493 290.41 569.038C307.135 548.567 322.998 531.653 336.013 521.949C360.306 503.846 389.118 503.015 414.789 510.722C440.483 518.436 462.878 534.663 474.202 550.42C507.055 596.15 531.535 660.246 552.403 750.426C573.216 840.372 590.416 956.179 608.774 1105.44Z" fill="white" stroke="black" stroke-width="2"/>
<path d="M249.699 618.257C239.741 632.292 230.073 646.526 220.573 660.895C223.162 655.305 225.774 649.728 228.327 644.127C228.508 643.718 227.93 643.385 227.737 643.793C224.197 650.816 220.946 657.939 217.779 665.099C205.077 684.415 192.747 703.99 180.851 723.825C175.806 732.247 171.17 740.816 167.763 750.091C164.464 759.068 162.417 768.516 161.333 778.025C160.249 787.56 160.165 797.143 160.888 806.702C161.622 816.558 162.79 826.314 164.933 835.948C167.365 846.817 170.677 857.638 174.963 867.901C177.07 872.934 179.322 877.942 181.742 882.839C183.957 887.303 188.461 896.417 188.4 896.763C187.497 901.809 186.57 905.345 185.944 909.587C185.306 913.903 184.68 918.231 184.042 922.547C182.777 931.19 171.845 1015.3 170.616 1023.96C168.172 1041.14 166.065 1058.33 163.982 1075.55C162.778 1085.43 162.152 1095.4 160.803 1105.27C160.743 1105.66 161.333 1105.82 161.405 1105.41C162.79 1096.82 164.861 1088.35 166.378 1079.79C167.895 1071.22 169.448 1062.64 171.014 1054.07C174.18 1036.76 186.353 943.816 188.99 926.405C189.725 921.594 190.447 916.772 191.182 911.961C191.904 907.176 193.156 900.745 192.976 895.898C192.976 895.898 177.961 864.204 172.121 841.995C169.677 832.671 167.173 822.963 166.149 813.355C165.15 803.895 165.054 794.373 165.812 784.901C166.571 775.429 168.305 766.018 171.134 756.966C174.048 747.617 178.238 738.924 182.922 730.379C192.723 712.486 203.15 694.926 213.71 677.49C225.69 657.729 237.815 638.042 250.205 618.554C250.421 618.22 249.916 617.96 249.699 618.257Z" fill="black"/>
<path d="M43.9502 1042.95C74.7139 1083.49 153.074 1087.33 349.468 1116.06C376.643 1120.03 455.557 930.593 426.744 924.819C390.454 917.547 248.098 897.391 237.502 897.255C148.173 896.216 23.0839 1015.45 43.9502 1042.95Z" fill="black"/>
<path d="M387.395 917.782C387.395 917.782 470.403 926.166 512.69 944.431C569.316 968.891 608.388 1013.95 623.656 1033.86C655.527 1075.4 704.616 1198.47 672.564 1219.17C643.559 1237.91 599.562 1109.52 599.562 1109.52C599.562 1109.52 665.448 1232.82 626.485 1248.79C587.522 1264.77 544.705 1112.73 544.705 1112.73C544.705 1112.73 609.64 1240.98 566.908 1250.92C534.628 1258.44 488.295 1122.98 488.295 1122.98C488.295 1122.98 543.357 1233.62 510.486 1242.81C474.16 1252.97 423.758 1130.7 423.758 1130.7C336.355 1139.63 291.179 1107.15 261.728 1080.14C254.612 1073.59 387.395 917.782 387.395 917.782Z" fill="white" stroke="black" stroke-width="2.5" stroke-miterlimit="10"/>
<path d="M526.597 1090.32C536.362 1108.92 546.729 1127.01 555.699 1146.06C564.621 1165.01 571.484 1183.8 579.118 1203.32C579.708 1204.83 578.721 1204.66 578.071 1203.17C569.678 1183.97 560.479 1166.88 551.882 1147.78C543.309 1128.74 535.387 1109.22 526.14 1090.52C526.007 1090.24 526.453 1090.04 526.597 1090.32Z" fill="black"/>
<path d="M477.496 1103.37C493.848 1131.01 505.214 1161.7 515.653 1192.09C516.171 1193.6 514.931 1193.24 514.317 1191.74C502.168 1162 492.848 1138.57 476.557 1103.96C476.304 1103.41 477.147 1102.77 477.496 1103.37Z" fill="black"/>
<path d="M443.008 919.485C445.235 919.728 446.975 919.919 448.162 920.049L287.982 1113.63C287.944 1113.63 287.905 1113.62 287.864 1113.62C287.447 1113.59 286.826 1113.54 286.016 1113.48C284.395 1113.35 282.014 1113.15 278.973 1112.87C272.891 1112.33 264.172 1111.48 253.63 1110.27C232.543 1107.86 204.168 1104.02 175.006 1098.32C145.835 1092.62 115.915 1085.06 91.7206 1075.22C79.6235 1070.29 68.9893 1064.81 60.604 1058.72C52.2128 1052.63 46.1346 1045.98 43.0528 1038.74C36.9134 1024.31 42.3784 1008.06 55.3096 991.665C68.2178 975.294 88.3849 959.022 111.042 944.723C133.688 930.43 158.761 918.146 181.429 909.731C204.139 901.3 224.291 896.806 237.149 897.957C263.327 900.299 316.537 905.872 363.212 910.861C386.547 913.355 408.246 915.702 424.111 917.426C432.043 918.288 438.517 918.994 443.008 919.485Z" fill="black" stroke="white" stroke-width="2"/>
<path d="M152.159 922.84C164.85 913.936 200.911 892.778 237.237 896.958C237.647 897.007 237.659 897.601 237.249 897.613C207.461 898.553 165.464 915.779 152.484 923.372C152.135 923.569 151.846 923.062 152.159 922.84Z" fill="black"/>
<path d="M254.227 1080.89C317.777 1011.76 374.356 929.209 385.216 915.545C385.734 914.902 384.65 914.123 384.169 914.803C374.199 928.776 299.572 1015.92 253.083 1080.07C252.541 1080.82 253.625 1081.56 254.227 1080.89Z" fill="black"/>
<path d="M507.308 593.475C637.178 763.198 686.171 1068.09 614.084 1091.86C548.222 1113.58 277.333 1043.95 196.637 1015.81C172.941 1007.54 246.136 818.288 271.493 827.105C302.136 837.752 469.669 878.523 472.92 878.597C479.879 878.758 442.65 691.042 426.672 605.989C404.421 487.473 458.544 529.728 507.308 593.475Z" fill="white" stroke="black" stroke-width="1.25833" stroke-miterlimit="10"/>
<path d="M54.9432 755.99C41.229 771.967 52.3304 790.85 52.3304 790.85C52.3304 790.85 36.3285 795.24 28.177 809.275C18.8456 825.351 39.2904 847.424 39.2904 847.424C39.2904 847.424 23.9869 855.313 16.8348 871.018C9.40572 887.329 26.9368 912.617 26.9368 912.617C26.9368 912.617 16.618 928.001 19.9171 946.142C25.5521 977.155 69.2233 994.752 96.8805 1006.23C124.526 1017.7 213.421 1023.66 230.254 1026.56L303.509 844.938C303.509 844.938 193.783 757.239 159.407 748.496C130.438 741.126 70.331 738.059 54.9432 755.99Z" fill="white" stroke="black" stroke-width="2.5" stroke-miterlimit="10"/>
<path d="M54.7268 788.452C87.3447 788.699 118.12 798.851 149.39 807.186C150.088 807.372 149.787 808.485 149.101 808.299C118.096 799.643 85.8035 797.417 54.5341 790.034C53.6552 789.837 53.8478 788.452 54.7268 788.452Z" fill="black"/>
<path d="M40.8076 845.285C48.1885 845.569 55.449 848.352 62.4325 850.602C69.9579 853.026 77.423 855.586 84.8641 858.257C99.7583 863.611 114.532 869.312 129.137 875.458C129.788 875.73 129.535 876.818 128.848 876.571C114.002 871.266 99.072 866.183 84.0092 861.521C76.4718 859.184 68.9224 856.921 61.3489 854.708C54.3051 852.643 46.7196 851.072 40.2417 847.437C39.3026 846.892 39.6999 845.248 40.8076 845.285Z" fill="black"/>
<path d="M27.5753 912.829C33.9929 912.816 40.8561 916.402 46.7921 918.678C53.5228 921.262 60.2775 923.81 67.0443 926.32C80.5659 931.328 94.0995 936.336 107.778 940.862C108.464 941.085 108.175 942.198 107.489 941.975C93.5577 937.449 79.5786 933.121 65.6837 928.459C58.8567 926.172 52.0538 923.847 45.2629 921.485C39.4835 919.482 32.0424 917.639 27.3104 913.509C27.0335 913.286 27.2502 912.829 27.5753 912.829Z" fill="black"/>
<path d="M470.5 870.906C472.595 869.62 433.68 688.446 420.628 593.896C407.576 499.358 448.694 508.435 507.85 589.259C571.219 675.833 684.052 910.193 644.968 1083.72C632.313 1139.92 240.308 1061.19 240.308 1061.19L293.13 829.802C293.118 829.814 467.249 872.897 470.5 870.906Z" fill="black" stroke="white" stroke-width="2" stroke-miterlimit="10"/>
<path d="M630.229 853.731C566.294 872.997 496.976 863.216 468.681 857.75C464.587 835.009 454.665 785.73 444.551 732.47C511.726 740.112 557.311 730.269 582.211 721.699C600.405 762.087 617.454 807.148 630.229 853.731Z" fill="black" stroke="white" stroke-width="2" stroke-miterlimit="10"/>
<path d="M291.612 1037.4C315.452 956.836 328.6 868.444 331.96 853.209C332.116 852.492 330.972 852.307 330.84 853.049C328.299 868.172 302.605 967.508 290.371 1037.23C290.239 1038.03 291.383 1038.18 291.612 1037.4Z" fill="black"/>
<path d="M544.187 897.68C536.626 896.344 336.499 838.459 292.732 831.497C292.045 831.386 292.659 829.024 293.382 829.16C427.851 853.521 538.335 890.446 546.8 893.921C556.854 898.014 558.287 900.165 544.187 897.68Z" fill="black"/>
<path d="M468.561 872.75C468.705 872.354 455.364 802.981 453.004 798.653C450.584 794.164 445.334 784.197 443.191 779.548C438.856 770.174 435.1 760.59 431.114 751.093C430.777 750.314 431.933 749.696 432.27 750.487C436.581 759.675 441.662 768.48 446.779 777.173C449.332 781.44 451.872 785.755 454.425 789.984C454.618 790.269 442.107 722.194 440.362 710.249C440.217 709.371 441.156 709.123 441.421 709.865C445.178 721.897 471.414 858.257 475.002 873.356C475.002 873.368 472.522 873.319 468.561 872.75Z" fill="black"/>
<path d="M321.027 1075.58C307.963 1071.87 255.587 1063.17 242.848 1061.29C244.1 1056.56 247.821 1037.3 247.471 1031.88C247.435 1031.37 246.689 1031.06 246.388 1031.52C243.414 1035.99 238.309 1059.67 236.791 1065.26C236.502 1066.33 307.349 1075.47 320.919 1076.21C321.304 1076.22 321.413 1075.69 321.027 1075.58Z" fill="black"/>
<path d="M303.497 537.99C303.497 537.99 308.759 591.226 351.731 599.523C394.704 607.809 475.015 549.837 475.015 549.837C475.015 549.837 442.758 505.258 384.494 505.122C328.445 504.973 303.497 537.99 303.497 537.99Z" fill="black" stroke="white" stroke-width="2" stroke-miterlimit="10"/>
<path d="M426.888 523.112C424.588 531.113 383.988 581.517 348.01 577.658C336.295 576.385 340.22 510.4 340.22 510.4L339.425 505.466L328.36 436.328L409.309 389.448L420.976 383.302C420.976 383.302 422.794 402.42 424.817 426.262C424.913 427.362 425.022 428.475 425.106 429.662C425.251 431.01 425.407 432.272 425.491 433.533C425.841 437.094 426.178 440.717 426.443 444.353C426.659 447.111 426.876 449.794 426.997 452.7C427.189 455.618 427.322 458.438 427.514 461.356C428.815 490.07 427.815 519.699 426.888 523.112Z" fill="white"/>
<path d="M424.818 428.217C402.747 481.44 359.257 501.102 339.438 507.434L328.373 438.295L409.322 391.416L420.989 385.27C420.977 385.258 422.783 404.375 424.818 428.217Z" fill="white" stroke="black" stroke-width="2.5" stroke-miterlimit="10"/>
<path d="M250.555 307.25C219.056 425.902 284.69 458.672 309.601 465.621C332.226 471.928 410.032 490.452 453.294 375.782C496.568 261.113 452.812 208.57 401.82 191.331C350.841 174.093 282.065 188.599 250.555 307.25Z" fill="white" stroke="black" stroke-width="2.5" stroke-miterlimit="10"/>
<path d="M292.166 284.039C294.971 284.385 297.62 284.225 300.438 284.274C303.604 284.336 306.133 284.707 308.914 282.864C310.407 281.875 310.925 279.253 310.13 277.671C308.264 273.998 304.399 272.934 300.582 272.7C296.44 272.452 293.189 273.355 289.83 275.84C286.555 278.264 288.457 283.582 292.166 284.039Z" fill="black"/>
<path d="M374.5 295.886C371.827 294.933 369.515 293.585 366.974 292.361C364.097 290.976 361.676 290.185 359.967 287.266C359.052 285.708 359.714 283.111 361.098 282.06C364.337 279.6 368.275 280.391 371.803 281.912C375.631 283.557 378.172 285.832 380.123 289.591C382.001 293.227 378.015 297.134 374.5 295.886Z" fill="black"/>
<path d="M348.094 333.811C348.227 333.515 348.624 334.356 348.528 334.689C346.324 342.752 345.108 352.373 351.622 356.886C351.827 357.022 351.707 357.43 351.442 357.319C343.013 353.844 344.747 341.083 348.094 333.811Z" fill="black"/>
<path d="M357.209 327.121C370.177 329.36 364.855 355.835 352.85 353.758C341.014 351.717 346.336 325.242 357.209 327.121Z" fill="black"/>
<path d="M361.989 329.595C363.94 331.574 365.613 334.678 368.274 335.531C371.357 336.52 374.283 334.245 376.871 332.019C377.136 331.784 377.317 332.068 377.245 332.415C376.293 337.497 373.355 342.307 367.913 341.936C362.94 341.603 360.376 336.372 360.171 331.017C360.123 330.016 361.206 328.791 361.989 329.595Z" fill="black"/>
<path d="M300.534 317.639C300.534 317.317 299.824 317.886 299.763 318.232C298.294 326.468 295.26 335.656 287.482 336.769C287.241 336.806 287.181 337.214 287.458 337.239C296.512 337.919 300.426 325.689 300.534 317.639Z" fill="black"/>
<path d="M295.212 307.509C282.605 303.663 276.043 329.842 287.735 333.403C299.221 336.915 305.783 310.737 295.212 307.509Z" fill="black"/>
<path d="M289.469 307.832C287.109 308.685 284.484 310.676 282.04 310.206C279.198 309.662 277.85 306.286 276.754 303.095C276.646 302.761 276.381 302.935 276.284 303.281C274.9 308.252 275.201 313.891 279.644 316.08C283.689 318.083 287.904 314.62 290.312 309.946C290.745 309.08 290.42 307.485 289.469 307.832Z" fill="black"/>
<path d="M327.686 395.841C325.458 397.461 323.123 399.81 320.161 399.587C317.319 399.365 314.237 397.535 311.829 396.088C311.588 395.94 311.287 396.187 311.419 396.459C313.021 399.971 317.102 402.679 320.943 402.617C324.688 402.555 327 399.625 328.408 396.348C328.601 395.89 328.011 395.606 327.686 395.841Z" fill="black"/>
<path d="M300.679 358.792C300.679 358.792 296.441 370.639 295.201 376.401C295.092 376.945 296.393 377.502 298.271 378.046C298.355 378.095 298.403 378.145 298.488 378.108C308.06 381.917 318.788 380.643 326.578 373.693C327.084 373.211 326.494 372.457 325.916 372.704C317.331 376.624 308.854 376.228 300.029 374.398C299.969 372.716 307.964 354.353 307.085 354.093C304.074 353.129 297.572 353.92 293.707 354.192C301.847 329.25 313.827 305.853 321.569 280.886C321.834 279.996 320.618 279.427 320.185 280.182C305.953 303.801 295.959 332.292 286.905 357.828C285.749 361.006 298.223 359.274 300.679 358.792Z" fill="black"/>
<path d="M300.498 376.228C300.498 376.228 303.882 385.008 310.432 389.633C312.84 391.352 315.621 392.526 318.836 392.526C325.458 392.551 327.12 386.764 327.289 381.471C327.433 377.118 326.506 373.075 326.506 373.075C326.506 373.075 315.224 379.282 300.498 376.228Z" fill="black"/>
<path d="M310.432 389.633L310.903 389.8C310.945 389.681 310.99 389.562 311.036 389.445C310.931 389.373 310.826 389.3 310.722 389.226L310.432 389.633ZM326.771 381.898C326.917 381.919 327.062 381.941 327.207 381.965L327.288 381.471L326.789 381.456C326.784 381.603 326.778 381.751 326.771 381.898Z" fill="white" stroke="black"/>
<path d="M446.852 373.792C434.534 369.34 411.79 324.316 428.141 261.868C428.141 261.868 417.232 318.986 419.026 328.372C420.832 337.745 406.347 303.071 418.846 252.519C418.846 252.519 386.216 264.601 361.316 264.44C336.416 264.291 322.376 259.914 321.208 257.713C320.041 255.512 357.017 254.535 369.226 246.373C369.226 246.373 299.752 257.589 270.867 251.48C267.52 250.775 282.907 180.586 334.766 164.152C386.637 147.717 447.008 199.741 460.458 223.681C460.458 223.681 481.42 233.315 495.905 273.492C510.414 313.669 460.121 378.59 446.852 373.792Z" fill="black"/>
<path d="M428.972 376.402C428.972 376.402 461.361 343.435 476.387 355.961C491.402 368.488 462.396 419.634 441.47 423.467C420.555 427.301 416.714 407.49 416.714 407.49L428.972 376.402Z" fill="white" stroke="black" stroke-width="2.5" stroke-miterlimit="10"/>
<path d="M467.718 370.404C468.043 370.429 468.019 370.899 467.73 370.961C452.981 374.114 443.445 385.849 435.979 398.463C440.988 394.011 447.057 392.181 452.981 398.45C453.294 398.784 452.848 399.291 452.475 399.13C447.069 396.843 442.83 397.09 438.207 401.01C434.932 403.78 432.367 407.589 429.766 411.014C428.899 412.152 426.804 411.064 427.527 409.703C427.575 409.604 427.647 409.505 427.695 409.394C430.525 391.34 448.586 368.71 467.718 370.404Z" fill="black"/>
</g>
<rect x="2" y="2" width="562" height="1351" rx="14" stroke="black" stroke-width="4"/>
<defs>
<clipPath id="clip0_508_892">
<rect width="566" height="1355" rx="16" fill="white"/>
</clipPath>
</defs>
</svg>
